; NON-PLATED HOLES START AT T1
; THROUGH (PLATED) HOLES START AT T100
M48
INCH
T1C0.128000
T2C0.086614
T100C0.035000
T101C0.040000
T102C0.015748
T103C0.038000
T104C0.039370
%
T1
X047766Y029322
X043766Y029322
X036766Y029322
X040766Y029322
T2
X001991Y035847
X002016Y001985
X050460Y001933
X050431Y035822
X028196Y016181
T100
X035016Y027822
X035016Y031822
X033016Y027822
X033016Y031822
T101
X045516Y032822
X046516Y032822
X039016Y031822
X038016Y031822
X040016Y031822
X047016Y031822
X037516Y032822
X038516Y032822
X046016Y031822
X045016Y031822
X044516Y032822
X039516Y032822
T102
X016016Y013822
X026016Y013822
X017016Y020822
X021016Y016822
X042016Y024822
X013016Y018822
X032016Y021822
X035016Y024822
X021016Y011822
X017016Y013822
T103
X031016Y006822
X040016Y012822
X015016Y006822
X006016Y012822
X031016Y015822
X031016Y009822
X031016Y016822
X048016Y021822
X048016Y013822
X037016Y011822
X037016Y007822
X015016Y009822
X040016Y011822
X037016Y015822
X044514Y010822
X006016Y010822
X031016Y010822
X048016Y012822
X048016Y014822
X048016Y007822
X048016Y019822
X037016Y013822
X037016Y010822
X006016Y009822
X015016Y010822
X040016Y015822
X031016Y013822
X031016Y017822
X022016Y017822
X037016Y016822
X015016Y012822
X006016Y004822
X048016Y020822
X015016Y004822
X040016Y018822
X037016Y006822
X006016Y008822
X040016Y010822
X022016Y016822
X031016Y012822
X040016Y014822
X040016Y017822
X031016Y021822
X031016Y020822
X048016Y006822
X037016Y008822
X040016Y016822
X048016Y010822
X031016Y014822
X040016Y013822
X048016Y016822
X022016Y019822
X015016Y011822
X006016Y007822
X048016Y008822
X048016Y017822
X048016Y018822
X031016Y011822
X006016Y006822
X006016Y011822
X031016Y018822
X015016Y003822
X006016Y003822
X037016Y017822
X040016Y019822
X048016Y009822
X015016Y005822
X022016Y018822
X006016Y005822
X040016Y021822
X048016Y015822
X048016Y011822
X031016Y019822
X015016Y008822
X031016Y008822
X037016Y014822
X031016Y007822
X037016Y012822
X040016Y020822
X015016Y007822
X037016Y009822
T104
X014016Y031822
X030016Y014822
X038016Y010822
X030016Y015822
X019016Y006822
X038016Y008822
X014016Y023822
X019016Y007822
X038016Y015822
X030016Y021822
X010016Y031822
X038016Y017822
X030016Y010822
X024016Y031822
X038016Y016822
X038016Y007822
X038016Y011822
X012016Y031822
X006016Y023822
X026016Y008822
X030016Y020822
X026016Y009822
X030016Y019822
X016016Y023822
X030016Y016822
X006016Y031822
X019016Y005822
X030016Y006822
X030016Y012822
X018016Y031822
X030016Y018822
X038016Y013822
X019016Y008822
X022016Y031822
X038016Y012822
X008016Y031822
X038016Y014822
X030016Y007822
X038016Y009822
X019016Y009822
X030016Y011822
X030016Y009822
X022016Y023822
X019016Y010822
X030016Y013822
X020016Y031822
X012016Y023822
X008016Y023822
X010016Y023822
X018016Y023822
X020016Y023822
X030016Y017822
X038016Y006822
X026016Y006822
X026016Y007822
X024016Y023822
X016016Y031822
X030016Y008822
T00
M30
